<?xml version="1.0" encoding="UTF-8" standalone="no"?>
<!DOCTYPE svg PUBLIC "-//W3C//DTD SVG 1.1//EN" "http://www.w3.org/Graphics/SVG/1.1/DTD/svg11.dtd">
<svg width="100%" height="100%" viewBox="0 0 884 1335" version="1.1" xmlns="http://www.w3.org/2000/svg" xmlns:xlink="http://www.w3.org/1999/xlink" xml:space="preserve" xmlns:serif="http://www.serif.com/" style="fill-rule:evenodd;clip-rule:evenodd;stroke-linejoin:round;stroke-miterlimit:2;">
    <g transform="matrix(1,0,0,1,-798.208,-1144.74)">
        <g transform="matrix(1,0,0,1,798.208,1144.74)">
            <path d="M698.933,470.398C696.92,516.099 688.007,572.491 672.243,651.901C665.857,684.07 629.493,865.926 595.667,994.783C574.792,1074.3 503.4,1123.87 419.974,1078.74C336.163,1033.4 353.661,939.389 379.596,896.224C440.937,794.127 560.251,687.495 587.545,630.618C620.603,561.727 666.011,503.369 595.362,294.332C593.82,287.746 592.43,281.328 591.182,275.07C572.093,204.411 567.876,116.948 589.17,0C484.476,53.244 367.047,162.883 264.739,293.968C116.496,483.908 -0,718.874 -0,892.54C-0,1136.46 198.03,1334.49 441.95,1334.49C685.871,1334.49 883.902,1136.46 883.902,892.54C883.902,673.652 784.847,577.543 698.933,470.398Z" style="fill:rgb(255,128,64);"/>
        </g>
    </g>
</svg>
